<svg width="83" height="17" viewBox="0 0 83 17" fill="none" xmlns="http://www.w3.org/2000/svg">
<path d="M12.6873 0.809814V15.9682H9.91908L3.32431 6.42758H3.21329V15.9682H0.00842285V0.809814H2.82101L9.36396 10.343H9.49719V0.809814H12.6873Z" fill="#263238"/>
<path d="M20.457 16.1902C19.2876 16.1902 18.281 15.9534 17.4372 15.4797C16.5983 15.001 15.9519 14.325 15.498 13.4516C15.044 12.5733 14.817 11.5346 14.817 10.3356C14.817 9.16615 15.044 8.1398 15.498 7.25655C15.9519 6.3733 16.5909 5.68496 17.415 5.19152C18.244 4.69809 19.216 4.45137 20.3312 4.45137C21.0812 4.45137 21.7794 4.57226 22.4258 4.81404C23.0772 5.05089 23.6446 5.40863 24.1282 5.88727C24.6167 6.3659 24.9966 6.96789 25.268 7.69324C25.5394 8.41366 25.6751 9.25743 25.6751 10.2246V11.0905H16.0753V9.13654H22.7071C22.7071 8.68258 22.6084 8.28043 22.411 7.93009C22.2136 7.57975 21.9398 7.30589 21.5894 7.10852C21.244 6.90621 20.8419 6.80506 20.383 6.80506C19.9044 6.80506 19.48 6.91608 19.1099 7.13812C18.7448 7.35524 18.4586 7.64883 18.2514 8.01891C18.0441 8.38405 17.938 8.79113 17.9331 9.24016V11.0979C17.9331 11.6605 18.0367 12.1465 18.2439 12.556C18.4561 12.9656 18.7547 13.2814 19.1395 13.5034C19.5244 13.7255 19.9808 13.8365 20.5088 13.8365C20.8592 13.8365 21.1799 13.7872 21.471 13.6885C21.7621 13.5898 22.0113 13.4418 22.2186 13.2444C22.4258 13.047 22.5837 12.8052 22.6923 12.519L25.6085 12.7115C25.4604 13.4122 25.157 14.024 24.6981 14.5471C24.2441 15.0652 23.6569 15.4698 22.9365 15.7609C22.221 16.0471 21.3945 16.1902 20.457 16.1902Z" fill="#263238"/>
<path d="M30.1641 4.5994L32.2514 8.57402L34.3904 4.5994H37.6249L34.3312 10.2838L37.7137 15.9682H34.494L32.2514 12.0379L30.0457 15.9682H26.789L30.1641 10.2838L26.9074 4.5994H30.1641Z" fill="#263238"/>
<path d="M44.227 16.1902C43.0625 16.1902 42.0608 15.9435 41.222 15.45C40.3881 14.9517 39.7466 14.2609 39.2976 13.3776C38.8535 12.4944 38.6315 11.4779 38.6315 10.3282C38.6315 9.16368 38.856 8.14227 39.305 7.26395C39.759 6.3807 40.4029 5.69236 41.2368 5.19892C42.0707 4.70055 43.0625 4.45137 44.2122 4.45137C45.204 4.45137 46.0725 4.63147 46.8176 4.99168C47.5627 5.35189 48.1523 5.85766 48.5865 6.50899C49.0208 7.16033 49.2601 7.92515 49.3045 8.80347H46.3291C46.2452 8.23602 46.0231 7.77959 45.6629 7.43419C45.3077 7.08385 44.8414 6.90868 44.264 6.90868C43.7755 6.90868 43.3487 7.0419 42.9836 7.30836C42.6234 7.56988 42.3421 7.95229 42.1398 8.4556C41.9375 8.9589 41.8363 9.5683 41.8363 10.2838C41.8363 11.0091 41.935 11.6259 42.1324 12.1342C42.3347 12.6424 42.6184 13.0297 42.9836 13.2962C43.3487 13.5627 43.7755 13.6959 44.264 13.6959C44.6242 13.6959 44.9474 13.6219 45.2336 13.4738C45.5248 13.3258 45.7641 13.1112 45.9516 12.8299C46.144 12.5437 46.2699 12.2008 46.3291 11.8011H49.3045C49.2551 12.6695 49.0183 13.4344 48.5939 14.0956C48.1745 14.7518 47.5947 15.265 46.8546 15.6351C46.1144 16.0052 45.2386 16.1902 44.227 16.1902Z" fill="#263238"/>
<path d="M56.5043 16.1902C55.3349 16.1902 54.3283 15.9534 53.4845 15.4797C52.6457 15.001 51.9993 14.325 51.5453 13.4516C51.0913 12.5733 50.8644 11.5346 50.8644 10.3356C50.8644 9.16615 51.0913 8.1398 51.5453 7.25655C51.9993 6.3733 52.6383 5.68496 53.4623 5.19152C54.2913 4.69809 55.2633 4.45137 56.3785 4.45137C57.1285 4.45137 57.8267 4.57226 58.4731 4.81404C59.1245 5.05089 59.6919 5.40863 60.1755 5.88727C60.664 6.3659 61.0439 6.96789 61.3153 7.69324C61.5867 8.41366 61.7224 9.25743 61.7224 10.2246V11.0905H52.1226V9.13654H58.7544C58.7544 8.68258 58.6557 8.28043 58.4583 7.93009C58.261 7.57975 57.9871 7.30589 57.6368 7.10852C57.2914 6.90621 56.8892 6.80506 56.4303 6.80506C55.9517 6.80506 55.5273 6.91608 55.1572 7.13812C54.7921 7.35524 54.5059 7.64883 54.2987 8.01891C54.0914 8.38405 53.9853 8.79113 53.9804 9.24016V11.0979C53.9804 11.6605 54.084 12.1465 54.2913 12.556C54.5034 12.9656 54.802 13.2814 55.1868 13.5034C55.5717 13.7255 56.0282 13.8365 56.5561 13.8365C56.9065 13.8365 57.2272 13.7872 57.5183 13.6885C57.8095 13.5898 58.0586 13.4418 58.2659 13.2444C58.4731 13.047 58.631 12.8052 58.7396 12.519L61.6558 12.7115C61.5078 13.4122 61.2043 14.024 60.7454 14.5471C60.2914 15.0652 59.7043 15.4698 58.9838 15.7609C58.2684 16.0471 57.4418 16.1902 56.5043 16.1902Z" fill="#263238"/>
<path d="M66.9331 9.39559V15.9682H63.78V4.5994H66.785V6.60522H66.9183C67.1699 5.94401 67.5918 5.42097 68.1839 5.03609C68.7761 4.64628 69.494 4.45137 70.3378 4.45137C71.1273 4.45137 71.8156 4.62407 72.4028 4.96948C72.99 5.31488 73.4464 5.80832 73.7721 6.44978C74.0978 7.08631 74.2606 7.84621 74.2606 8.72945V15.9682H71.1075V9.29197C71.1125 8.59623 70.9348 8.05345 70.5746 7.66363C70.2144 7.26889 69.7185 7.07151 69.0869 7.07151C68.6626 7.07151 68.2876 7.1628 67.9619 7.34537C67.6412 7.52794 67.3895 7.79439 67.2069 8.14473C67.0293 8.49014 66.938 8.90709 66.9331 9.39559Z" fill="#263238"/>
<path d="M82.7927 4.5994V6.96789H75.9463V4.5994H82.7927ZM77.5006 1.87564H80.6537V12.4746C80.6537 12.7658 80.6981 12.9927 80.7869 13.1556C80.8757 13.3135 80.9991 13.4245 81.157 13.4886C81.3198 13.5528 81.5073 13.5849 81.7195 13.5849C81.8675 13.5849 82.0156 13.5725 82.1636 13.5479C82.3116 13.5182 82.4251 13.496 82.5041 13.4812L83 15.8275C82.8421 15.8769 82.62 15.9336 82.3338 15.9978C82.0476 16.0668 81.6998 16.1088 81.2902 16.1236C80.5303 16.1532 79.8642 16.052 79.2918 15.8201C78.7243 15.5882 78.2827 15.228 77.9669 14.7395C77.6511 14.251 77.4957 13.6342 77.5006 12.8891V1.87564Z" fill="#263238"/>
</svg>
